<mxfile host="app.diagrams.net" modified="2022-08-16T02:44:35.003Z" agent="5.0 (Macintosh; Intel Mac OS X 10_15_7) AppleWebKit/537.36 (KHTML, like Gecko) Chrome/103.0.0.0 Safari/537.36" etag="ALOLK6X1w2FjoM0kHLg8" version="20.2.3" type="github">
  <diagram id="RHxJPSbuV6qexqlm0edb" name="Page-1">
    <mxGraphModel dx="1186" dy="598" grid="0" gridSize="10" guides="1" tooltips="1" connect="1" arrows="1" fold="1" page="1" pageScale="1" pageWidth="850" pageHeight="1100" background="none" math="0" shadow="0">
      <root>
        <mxCell id="0" />
        <mxCell id="1" parent="0" />
        <mxCell id="TrNGdBd6hg_rH0KwmXwy-1" value="&lt;font color=&quot;#3333ff&quot; style=&quot;font-size: 20px;&quot;&gt;Profile Select Banner&lt;/font&gt;" style="rounded=0;whiteSpace=wrap;html=1;fillColor=#FFFFFF;strokeColor=#3333FF;strokeWidth=3;" vertex="1" parent="1">
          <mxGeometry x="51" y="92" width="211" height="60" as="geometry" />
        </mxCell>
        <mxCell id="TrNGdBd6hg_rH0KwmXwy-2" value="&lt;font color=&quot;#b85450&quot; style=&quot;font-size: 20px;&quot;&gt;Explore Popup&lt;/font&gt;" style="rounded=0;whiteSpace=wrap;html=1;fillColor=#FFFFFF;strokeColor=#B85450;strokeWidth=3;" vertex="1" parent="1">
          <mxGeometry x="305" y="92" width="211" height="60" as="geometry" />
        </mxCell>
        <mxCell id="TrNGdBd6hg_rH0KwmXwy-3" value="&lt;font&gt;EpicPromos&lt;/font&gt;" style="whiteSpace=wrap;html=1;fontSize=20;fillColor=#FFFFFF;strokeColor=#000000;strokeWidth=3;fontColor=#000000;" vertex="1" parent="1">
          <mxGeometry x="304" y="324" width="211" height="60" as="geometry" />
        </mxCell>
        <mxCell id="TrNGdBd6hg_rH0KwmXwy-4" value="&lt;font style=&quot;font-size: 20px;&quot;&gt;SBS Screen&lt;/font&gt;" style="rounded=0;whiteSpace=wrap;html=1;fillColor=#FFFFFF;strokeColor=#B5739D;fontColor=#B5739D;strokeWidth=3;" vertex="1" parent="1">
          <mxGeometry x="51" y="572" width="210" height="60" as="geometry" />
        </mxCell>
        <mxCell id="TrNGdBd6hg_rH0KwmXwy-6" value="&lt;font color=&quot;#3333ff&quot; style=&quot;font-size: 20px;&quot;&gt;Profile Select View Model&lt;br&gt;&lt;/font&gt;" style="rounded=0;whiteSpace=wrap;html=1;fillColor=#FFFFFF;strokeColor=#3333FF;strokeWidth=3;" vertex="1" parent="1">
          <mxGeometry x="51" y="154" width="211" height="60" as="geometry" />
        </mxCell>
        <mxCell id="TrNGdBd6hg_rH0KwmXwy-7" style="edgeStyle=orthogonalEdgeStyle;rounded=0;orthogonalLoop=1;jettySize=auto;html=1;fontSize=20;fontColor=#000000;strokeColor=#B85450;strokeWidth=3;" edge="1" parent="1" source="TrNGdBd6hg_rH0KwmXwy-8" target="TrNGdBd6hg_rH0KwmXwy-3">
          <mxGeometry relative="1" as="geometry">
            <Array as="points">
              <mxPoint x="410" y="262" />
              <mxPoint x="410" y="262" />
            </Array>
          </mxGeometry>
        </mxCell>
        <mxCell id="TrNGdBd6hg_rH0KwmXwy-8" value="&lt;span style=&quot;color: rgb(184, 84, 80); font-size: 20px;&quot;&gt;Explore Popup View Model&lt;/span&gt;&lt;font color=&quot;#b85450&quot; style=&quot;font-size: 20px;&quot;&gt;&lt;br&gt;&lt;/font&gt;" style="rounded=0;whiteSpace=wrap;html=1;fillColor=#FFFFFF;strokeColor=#B85450;strokeWidth=3;" vertex="1" parent="1">
          <mxGeometry x="305" y="153" width="211" height="60" as="geometry" />
        </mxCell>
        <mxCell id="TrNGdBd6hg_rH0KwmXwy-22" style="edgeStyle=orthogonalEdgeStyle;rounded=0;orthogonalLoop=1;jettySize=auto;html=1;strokeColor=#B5739D;strokeWidth=3;" edge="1" parent="1">
          <mxGeometry relative="1" as="geometry">
            <mxPoint x="165" y="509" as="sourcePoint" />
            <mxPoint x="304" y="365" as="targetPoint" />
            <Array as="points">
              <mxPoint x="165" y="365" />
            </Array>
          </mxGeometry>
        </mxCell>
        <mxCell id="TrNGdBd6hg_rH0KwmXwy-10" value="&lt;span style=&quot;font-size: 20px;&quot;&gt;SBS View Model&lt;br&gt;&lt;/span&gt;" style="rounded=0;whiteSpace=wrap;html=1;fillColor=#FFFFFF;strokeColor=#B5739D;fontColor=#B5739D;strokeWidth=3;" vertex="1" parent="1">
          <mxGeometry x="51" y="512" width="210" height="60" as="geometry" />
        </mxCell>
        <mxCell id="TrNGdBd6hg_rH0KwmXwy-12" style="edgeStyle=orthogonalEdgeStyle;rounded=0;orthogonalLoop=1;jettySize=auto;html=1;exitX=0.5;exitY=1;exitDx=0;exitDy=0;" edge="1" parent="1" source="TrNGdBd6hg_rH0KwmXwy-6" target="TrNGdBd6hg_rH0KwmXwy-6">
          <mxGeometry relative="1" as="geometry" />
        </mxCell>
        <mxCell id="TrNGdBd6hg_rH0KwmXwy-13" value="&lt;font style=&quot;font-size: 20px;&quot;&gt;Explore Banner&lt;/font&gt;" style="rounded=0;whiteSpace=wrap;html=1;fillColor=#FFFFFF;strokeColor=#3399FF;strokeWidth=3;fontColor=#3399FF;" vertex="1" parent="1">
          <mxGeometry x="574" y="93" width="211" height="60" as="geometry" />
        </mxCell>
        <mxCell id="TrNGdBd6hg_rH0KwmXwy-29" style="edgeStyle=orthogonalEdgeStyle;rounded=0;orthogonalLoop=1;jettySize=auto;html=1;entryX=1;entryY=0.25;entryDx=0;entryDy=0;fontColor=#FF3333;strokeColor=#3399FF;strokeWidth=3;" edge="1" parent="1">
          <mxGeometry relative="1" as="geometry">
            <mxPoint x="684" y="216" as="sourcePoint" />
            <mxPoint x="515" y="341" as="targetPoint" />
            <Array as="points">
              <mxPoint x="684" y="341" />
            </Array>
          </mxGeometry>
        </mxCell>
        <mxCell id="TrNGdBd6hg_rH0KwmXwy-14" value="&lt;span style=&quot;font-size: 20px;&quot;&gt;Explore Banner&lt;/span&gt;&lt;span style=&quot;font-size: 20px;&quot;&gt;&amp;nbsp;View Model&lt;/span&gt;&lt;font style=&quot;font-size: 20px;&quot;&gt;&lt;br&gt;&lt;/font&gt;" style="rounded=0;whiteSpace=wrap;html=1;fillColor=#FFFFFF;strokeColor=#3399FF;strokeWidth=3;fontColor=#3399FF;" vertex="1" parent="1">
          <mxGeometry x="574" y="154" width="211" height="60" as="geometry" />
        </mxCell>
        <mxCell id="TrNGdBd6hg_rH0KwmXwy-15" style="edgeStyle=orthogonalEdgeStyle;rounded=0;orthogonalLoop=1;jettySize=auto;html=1;entryX=0.25;entryY=0;entryDx=0;entryDy=0;fontSize=20;fontColor=#000000;strokeColor=#3333FF;strokeWidth=3;" edge="1" parent="1">
          <mxGeometry relative="1" as="geometry">
            <mxPoint x="166" y="216" as="sourcePoint" />
            <mxPoint x="304" y="345" as="targetPoint" />
            <Array as="points">
              <mxPoint x="164.25" y="345" />
            </Array>
          </mxGeometry>
        </mxCell>
        <mxCell id="TrNGdBd6hg_rH0KwmXwy-23" value="&lt;font style=&quot;font-size: 20px;&quot;&gt;UPSELL Screen&lt;/font&gt;" style="rounded=0;whiteSpace=wrap;html=1;fillColor=#FFFFFF;strokeColor=#66CC00;fontColor=#66CC00;strokeWidth=3;" vertex="1" parent="1">
          <mxGeometry x="306" y="572" width="210" height="60" as="geometry" />
        </mxCell>
        <mxCell id="TrNGdBd6hg_rH0KwmXwy-30" style="edgeStyle=orthogonalEdgeStyle;rounded=0;orthogonalLoop=1;jettySize=auto;html=1;fontColor=#FF3333;strokeColor=#66CC00;strokeWidth=3;" edge="1" parent="1">
          <mxGeometry relative="1" as="geometry">
            <mxPoint x="411" y="384" as="targetPoint" />
            <mxPoint x="411" y="510" as="sourcePoint" />
          </mxGeometry>
        </mxCell>
        <mxCell id="TrNGdBd6hg_rH0KwmXwy-24" value="&lt;span style=&quot;font-size: 20px;&quot;&gt;UPSELL&lt;/span&gt;&lt;span style=&quot;font-size: 20px;&quot;&gt;&amp;nbsp;View Model&lt;br&gt;&lt;/span&gt;" style="rounded=0;whiteSpace=wrap;html=1;fillColor=#FFFFFF;strokeColor=#66CC00;fontColor=#66CC00;strokeWidth=3;" vertex="1" parent="1">
          <mxGeometry x="306" y="512" width="210" height="60" as="geometry" />
        </mxCell>
        <mxCell id="TrNGdBd6hg_rH0KwmXwy-25" value="&lt;font style=&quot;font-size: 20px;&quot;&gt;E2C Hardblock&lt;/font&gt;" style="rounded=0;whiteSpace=wrap;html=1;fillColor=#FFFFFF;strokeColor=#FF3333;fontColor=#FF3333;strokeWidth=3;" vertex="1" parent="1">
          <mxGeometry x="573" y="572" width="210" height="60" as="geometry" />
        </mxCell>
        <mxCell id="TrNGdBd6hg_rH0KwmXwy-28" style="edgeStyle=orthogonalEdgeStyle;rounded=0;orthogonalLoop=1;jettySize=auto;html=1;entryX=1;entryY=0.75;entryDx=0;entryDy=0;fontColor=#FF3333;strokeColor=#FF3333;strokeWidth=3;" edge="1" parent="1">
          <mxGeometry relative="1" as="geometry">
            <mxPoint x="687" y="511" as="sourcePoint" />
            <mxPoint x="515" y="362" as="targetPoint" />
            <Array as="points">
              <mxPoint x="687" y="362" />
            </Array>
          </mxGeometry>
        </mxCell>
        <mxCell id="TrNGdBd6hg_rH0KwmXwy-26" value="&lt;span style=&quot;font-size: 20px;&quot;&gt;E2C View Model&lt;br&gt;&lt;/span&gt;" style="rounded=0;whiteSpace=wrap;html=1;fillColor=#FFFFFF;strokeColor=#FF3333;fontColor=#FF3333;strokeWidth=3;" vertex="1" parent="1">
          <mxGeometry x="573" y="512" width="210" height="60" as="geometry" />
        </mxCell>
      </root>
    </mxGraphModel>
  </diagram>
</mxfile>
